<?xml version="1.0" standalone="no"?>
<!DOCTYPE svg PUBLIC "-//W3C//DTD SVG 1.1//EN" "http://www.w3.org/Graphics/SVG/1.1/DTD/svg11.dtd">
<svg version="1.1" width="1200" height="630" onload="init(evt)" viewBox="0 0 1200 630" xmlns="http://www.w3.org/2000/svg" xmlns:xlink="http://www.w3.org/1999/xlink">
<style type="text/css">
	text { font-family:Verdana; font-size:12px; fill:rgb(0,0,0); }
	#search { opacity:0.1; cursor:pointer; }
	#search:hover, #search.show { opacity:1; }
	#subtitle { text-anchor:middle; font-color:rgb(160,160,160); }
	#title { text-anchor:middle; font-size:17px}
	#unzoom { cursor:pointer; }
	#frames > *:hover { stroke:black; stroke-width:0.5; cursor:pointer; }
	.hide { display:none; }
	.parent { opacity:0.5; }
</style>
<script type="text/ecmascript">
<![CDATA[
	"use strict";
	var details, searchbtn, unzoombtn, matchedtxt, svg, searching;
	function init(evt) {
		details = document.getElementById("details").firstChild;
		searchbtn = document.getElementById("search");
		unzoombtn = document.getElementById("unzoom");
		matchedtxt = document.getElementById("matched");
		svg = document.getElementsByTagName("svg")[0];
		searching = 0;
	}

	window.addEventListener("click", function(e) {
		var target = find_group(e.target);
		if (target) {
			if (target.nodeName == "a") {
				if (e.ctrlKey === false) return;
				e.preventDefault();
			}
			if (target.classList.contains("parent")) unzoom();
			zoom(target);
		}
		else if (e.target.id == "unzoom") unzoom();
		else if (e.target.id == "search") search_prompt();
	}, false)

	// mouse-over for info
	// show
	window.addEventListener("mouseover", function(e) {
		var target = find_group(e.target);
		if (target) details.nodeValue = "Function: " + g_to_text(target);
	}, false)

	// clear
	window.addEventListener("mouseout", function(e) {
		var target = find_group(e.target);
		if (target) details.nodeValue = ' ';
	}, false)

	// ctrl-F for search
	window.addEventListener("keydown",function (e) {
		if (e.keyCode === 114 || (e.ctrlKey && e.keyCode === 70)) {
			e.preventDefault();
			search_prompt();
		}
	}, false)

	// functions
	function find_child(node, selector) {
		var children = node.querySelectorAll(selector);
		if (children.length) return children[0];
		return;
	}
	function find_group(node) {
		var parent = node.parentElement;
		if (!parent) return;
		if (parent.id == "frames") return node;
		return find_group(parent);
	}
	function orig_save(e, attr, val) {
		if (e.attributes["_orig_" + attr] != undefined) return;
		if (e.attributes[attr] == undefined) return;
		if (val == undefined) val = e.attributes[attr].value;
		e.setAttribute("_orig_" + attr, val);
	}
	function orig_load(e, attr) {
		if (e.attributes["_orig_"+attr] == undefined) return;
		e.attributes[attr].value = e.attributes["_orig_" + attr].value;
		e.removeAttribute("_orig_"+attr);
	}
	function g_to_text(e) {
		var text = find_child(e, "title").firstChild.nodeValue;
		return (text)
	}
	function g_to_func(e) {
		var func = g_to_text(e);
		// if there's any manipulation we want to do to the function
		// name before it's searched, do it here before returning.
		return (func);
	}
	function update_text(e) {
		var r = find_child(e, "rect");
		var t = find_child(e, "text");
		var w = parseFloat(r.attributes.width.value) -3;
		var txt = find_child(e, "title").textContent.replace(/\([^(]*\)$/,"");
		t.attributes.x.value = parseFloat(r.attributes.x.value) + 3;

		// Smaller than this size won't fit anything
		if (w < 2 * 12 * 0.59) {
			t.textContent = "";
			return;
		}

		t.textContent = txt;
		// Fit in full text width
		if (/^ *$/.test(txt) || t.getSubStringLength(0, txt.length) < w)
			return;

		for (var x = txt.length - 2; x > 0; x--) {
			if (t.getSubStringLength(0, x + 2) <= w) {
				t.textContent = txt.substring(0, x) + "..";
				return;
			}
		}
		t.textContent = "";
	}

	// zoom
	function zoom_reset(e) {
		if (e.attributes != undefined) {
			orig_load(e, "x");
			orig_load(e, "width");
		}
		if (e.childNodes == undefined) return;
		for (var i = 0, c = e.childNodes; i < c.length; i++) {
			zoom_reset(c[i]);
		}
	}
	function zoom_child(e, x, ratio) {
		if (e.attributes != undefined) {
			if (e.attributes.x != undefined) {
				orig_save(e, "x");
				e.attributes.x.value = (parseFloat(e.attributes.x.value) - x - 10) * ratio + 10;
				if (e.tagName == "text")
					e.attributes.x.value = find_child(e.parentNode, "rect[x]").attributes.x.value + 3;
			}
			if (e.attributes.width != undefined) {
				orig_save(e, "width");
				e.attributes.width.value = parseFloat(e.attributes.width.value) * ratio;
			}
		}

		if (e.childNodes == undefined) return;
		for (var i = 0, c = e.childNodes; i < c.length; i++) {
			zoom_child(c[i], x - 10, ratio);
		}
	}
	function zoom_parent(e) {
		if (e.attributes) {
			if (e.attributes.x != undefined) {
				orig_save(e, "x");
				e.attributes.x.value = 10;
			}
			if (e.attributes.width != undefined) {
				orig_save(e, "width");
				e.attributes.width.value = parseInt(svg.width.baseVal.value) - (10 * 2);
			}
		}
		if (e.childNodes == undefined) return;
		for (var i = 0, c = e.childNodes; i < c.length; i++) {
			zoom_parent(c[i]);
		}
	}
	function zoom(node) {
		var attr = find_child(node, "rect").attributes;
		var width = parseFloat(attr.width.value);
		var xmin = parseFloat(attr.x.value);
		var xmax = parseFloat(xmin + width);
		var ymin = parseFloat(attr.y.value);
		var ratio = (svg.width.baseVal.value - 2 * 10) / width;

		// XXX: Workaround for JavaScript float issues (fix me)
		var fudge = 0.0001;

		unzoombtn.classList.remove("hide");

		var el = document.getElementById("frames").children;
		for (var i = 0; i < el.length; i++) {
			var e = el[i];
			var a = find_child(e, "rect").attributes;
			var ex = parseFloat(a.x.value);
			var ew = parseFloat(a.width.value);
			var upstack;
			// Is it an ancestor
			if (0 == 0) {
				upstack = parseFloat(a.y.value) > ymin;
			} else {
				upstack = parseFloat(a.y.value) < ymin;
			}
			if (upstack) {
				// Direct ancestor
				if (ex <= xmin && (ex+ew+fudge) >= xmax) {
					e.classList.add("parent");
					zoom_parent(e);
					update_text(e);
				}
				// not in current path
				else
					e.classList.add("hide");
			}
			// Children maybe
			else {
				// no common path
				if (ex < xmin || ex + fudge >= xmax) {
					e.classList.add("hide");
				}
				else {
					zoom_child(e, xmin, ratio);
					update_text(e);
				}
			}
		}
	}
	function unzoom() {
		unzoombtn.classList.add("hide");
		var el = document.getElementById("frames").children;
		for(var i = 0; i < el.length; i++) {
			el[i].classList.remove("parent");
			el[i].classList.remove("hide");
			zoom_reset(el[i]);
			update_text(el[i]);
		}
	}

	// search
	function reset_search() {
		var el = document.querySelectorAll("#frames rect");
		for (var i = 0; i < el.length; i++) {
			orig_load(el[i], "fill")
		}
	}
	function search_prompt() {
		if (!searching) {
			var term = prompt("Enter a search term (regexp " +
			    "allowed, eg: ^ext4_)", "");
			if (term != null) {
				search(term)
			}
		} else {
			reset_search();
			searching = 0;
			searchbtn.classList.remove("show");
			searchbtn.firstChild.nodeValue = "Search"
			matchedtxt.classList.add("hide");
			matchedtxt.firstChild.nodeValue = ""
		}
	}
	function search(term) {
		var re = new RegExp(term);
		var el = document.getElementById("frames").children;
		var matches = new Object();
		var maxwidth = 0;
		for (var i = 0; i < el.length; i++) {
			var e = el[i];
			var func = g_to_func(e);
			var rect = find_child(e, "rect");
			if (func == null || rect == null)
				continue;

			// Save max width. Only works as we have a root frame
			var w = parseFloat(rect.attributes.width.value);
			if (w > maxwidth)
				maxwidth = w;

			if (func.match(re)) {
				// highlight
				var x = parseFloat(rect.attributes.x.value);
				orig_save(rect, "fill");
				rect.attributes.fill.value = "rgb(230,0,230)";

				// remember matches
				if (matches[x] == undefined) {
					matches[x] = w;
				} else {
					if (w > matches[x]) {
						// overwrite with parent
						matches[x] = w;
					}
				}
				searching = 1;
			}
		}
		if (!searching)
			return;

		searchbtn.classList.add("show");
		searchbtn.firstChild.nodeValue = "Reset Search";

		// calculate percent matched, excluding vertical overlap
		var count = 0;
		var lastx = -1;
		var lastw = 0;
		var keys = Array();
		for (k in matches) {
			if (matches.hasOwnProperty(k))
				keys.push(k);
		}
		// sort the matched frames by their x location
		// ascending, then width descending
		keys.sort(function(a, b){
			return a - b;
		});
		// Step through frames saving only the biggest bottom-up frames
		// thanks to the sort order. This relies on the tree property
		// where children are always smaller than their parents.
		var fudge = 0.0001;	// JavaScript floating point
		for (var k in keys) {
			var x = parseFloat(keys[k]);
			var w = matches[keys[k]];
			if (x >= lastx + lastw - fudge) {
				count += w;
				lastx = x;
				lastw = w;
			}
		}
		// display matched percent
		matchedtxt.classList.remove("hide");
		var pct = 100 * count / maxwidth;
		if (pct != 100) pct = pct.toFixed(1)
		matchedtxt.firstChild.nodeValue = "Matched: " + pct + "%";
	}
]]>
</script>
<rect x="0" y="0" width="100%" height="100%" fill="rgb(240,240,220)"/>
<text id="title" x="600" y="24">Flame Graph</text>
<text id="details" x="10" y="613"> </text>
<text id="unzoom" x="10" y="24" class="hide">Reset Zoom</text>
<text id="search" x="1090" y="24">Search</text>
<text id="matched" x="1090" y="613"> </text>
<g id="frames">
<g>
<title>all (512,448 samples, 100.00%)</title><rect x="10.0" y="579.0" width="1180.0" height="15" fill="#f37272" rx="2" ry="2"/>
<text x="13.0" y="590.0">all</text>
</g>
<g>
<title>java/lang/Thread.run (511,306 samples, 99.78%)</title><rect x="10.0" y="563.0" width="1177.4" height="15" fill="#61f261" rx="2" ry="2"/>
<text x="13.0" y="574.0">java/lang/Thread.run</text>
</g>
<g>
<title>java/util/concurrent/ThreadPoolExecutor$Worker.run (511,306 samples, 99.78%)</title><rect x="10.0" y="547.0" width="1177.4" height="15" fill="#59ea59" rx="2" ry="2"/>
<text x="13.0" y="558.0">java/util/concurrent/ThreadPoolExecutor$Worker.run</text>
</g>
<g>
<title>java/util/concurrent/ThreadPoolExecutor.runWorker (511,306 samples, 99.78%)</title><rect x="10.0" y="531.0" width="1177.4" height="15" fill="#57e857" rx="2" ry="2"/>
<text x="13.0" y="542.0">java/util/concurrent/ThreadPoolExecutor.runWorker</text>
</g>
<g>
<title>ru/mail/polis/service/igorlo/AsyncService$$Lambda$64/1422043020.run (511,295 samples, 99.78%)</title><rect x="10.0" y="515.0" width="1177.4" height="15" fill="#62f362" rx="2" ry="2"/>
<text x="13.0" y="526.0">ru/mail/polis/service/igorlo/AsyncService$$Lambda$64/1422043020.run</text>
</g>
<g>
<title>ru/mail/polis/service/igorlo/AsyncService.lambda$executeAsync$4 (511,295 samples, 99.78%)</title><rect x="10.0" y="499.0" width="1177.4" height="15" fill="#5bec5b" rx="2" ry="2"/>
<text x="13.0" y="510.0">ru/mail/polis/service/igorlo/AsyncService.lambda$executeAsync$4</text>
</g>
<g>
<title>ru/mail/polis/service/igorlo/AsyncService$$Lambda$62/454019155.action (511,295 samples, 99.78%)</title><rect x="10.0" y="483.0" width="1177.4" height="15" fill="#63f463" rx="2" ry="2"/>
<text x="13.0" y="494.0">ru/mail/polis/service/igorlo/AsyncService$$Lambda$62/454019155.action</text>
</g>
<g>
<title>ru/mail/polis/service/igorlo/AsyncService.lambda$entity$1 (511,295 samples, 99.78%)</title><rect x="10.0" y="467.0" width="1177.4" height="15" fill="#59ea59" rx="2" ry="2"/>
<text x="13.0" y="478.0">ru/mail/polis/service/igorlo/AsyncService.lambda$entity$1</text>
</g>
<g>
<title>ru/mail/polis/service/igorlo/AsyncService.get (511,295 samples, 99.78%)</title><rect x="10.0" y="451.0" width="1177.4" height="15" fill="#50e150" rx="2" ry="2"/>
<text x="13.0" y="462.0">ru/mail/polis/service/igorlo/AsyncService.get</text>
</g>
<g>
<title>ru/mail/polis/dao/DAO.get (511,295 samples, 99.78%)</title><rect x="10.0" y="435.0" width="1177.4" height="15" fill="#55e655" rx="2" ry="2"/>
<text x="13.0" y="446.0">ru/mail/polis/dao/DAO.get</text>
</g>
<g>
<title>com/google/common/collect/TransformedIterator.hasNext (508,894 samples, 99.31%)</title><rect x="10.0" y="419.0" width="1171.8" height="15" fill="#67f867" rx="2" ry="2"/>
<text x="13.0" y="430.0">com/google/common/collect/TransformedIterator.hasNext</text>
</g>
<g>
<title>com/google/common/collect/AbstractIterator.hasNext (508,894 samples, 99.31%)</title><rect x="10.0" y="403.0" width="1171.8" height="15" fill="#60f160" rx="2" ry="2"/>
<text x="13.0" y="414.0">com/google/common/collect/AbstractIterator.hasNext</text>
</g>
<g>
<title>com/google/common/collect/AbstractIterator.tryToComputeNext (508,894 samples, 99.31%)</title><rect x="10.0" y="387.0" width="1171.8" height="15" fill="#50e150" rx="2" ry="2"/>
<text x="13.0" y="398.0">com/google/common/collect/AbstractIterator.tryToComputeNext</text>
</g>
<g>
<title>com/google/common/collect/Iterators$5.computeNext (508,894 samples, 99.31%)</title><rect x="10.0" y="371.0" width="1171.8" height="15" fill="#60f160" rx="2" ry="2"/>
<text x="13.0" y="382.0">com/google/common/collect/Iterators$5.computeNext</text>
</g>
<g>
<title>ru/mail/polis/dao/Iters$CollapseEqualsIterator.next (508,894 samples, 99.31%)</title><rect x="10.0" y="355.0" width="1171.8" height="15" fill="#65f665" rx="2" ry="2"/>
<text x="13.0" y="366.0">ru/mail/polis/dao/Iters$CollapseEqualsIterator.next</text>
</g>
<g>
<title>com/google/common/collect/Iterators$MergingIterator.next (429,821 samples, 83.88%)</title><rect x="10.0" y="339.0" width="989.8" height="15" fill="#5ced5c" rx="2" ry="2"/>
<text x="13.0" y="350.0">com/google/common/collect/Iterators$MergingIterator.next</text>
</g>
<g>
<title>java/util/AbstractQueue.remove (78,947 samples, 15.41%)</title><rect x="10.0" y="323.0" width="181.8" height="15" fill="#62f362" rx="2" ry="2"/>
<text x="13.0" y="334.0">java/util/AbstractQueue..</text>
</g>
<g>
<title>java/util/PriorityQueue.poll (78,947 samples, 15.41%)</title><rect x="10.0" y="307.0" width="181.8" height="15" fill="#67f867" rx="2" ry="2"/>
<text x="13.0" y="318.0">java/util/PriorityQueue..</text>
</g>
<g>
<title>java/util/PriorityQueue.siftDownUsingComparator (78,947 samples, 15.41%)</title><rect x="10.0" y="291.0" width="181.8" height="15" fill="#52e352" rx="2" ry="2"/>
<text x="13.0" y="302.0">java/util/PriorityQueue..</text>
</g>
<g>
<title>com/google/common/collect/Iterators$MergingIterator$1.compare (78,947 samples, 15.41%)</title><rect x="10.0" y="275.0" width="181.8" height="15" fill="#68f968" rx="2" ry="2"/>
<text x="13.0" y="286.0">com/google/common/colle..</text>
</g>
<g>
<title>com/google/common/collect/Iterators$MergingIterator$1.compare (78,947 samples, 15.41%)</title><rect x="10.0" y="259.0" width="181.8" height="15" fill="#54e554" rx="2" ry="2"/>
<text x="13.0" y="270.0">com/google/common/colle..</text>
</g>
<g>
<title>ru/mail/polis/dao/igorlo/Table$$Lambda$67/1799357758.compare (78,947 samples, 15.41%)</title><rect x="10.0" y="243.0" width="181.8" height="15" fill="#63f463" rx="2" ry="2"/>
<text x="13.0" y="254.0">ru/mail/polis/dao/igorl..</text>
</g>
<g>
<title>ru/mail/polis/dao/igorlo/TableRow.compareTo (78,947 samples, 15.41%)</title><rect x="10.0" y="227.0" width="181.8" height="15" fill="#56e756" rx="2" ry="2"/>
<text x="13.0" y="238.0">ru/mail/polis/dao/igorl..</text>
</g>
<g>
<title>java/util/Comparator$$Lambda$80/1990546855.compare (78,947 samples, 15.41%)</title><rect x="10.0" y="211.0" width="181.8" height="15" fill="#56e756" rx="2" ry="2"/>
<text x="13.0" y="222.0">java/util/Comparator$$L..</text>
</g>
<g>
<title>java/util/Comparator.lambda$thenComparing$36697e65$1 (78,947 samples, 15.41%)</title><rect x="10.0" y="195.0" width="181.8" height="15" fill="#6bfc6b" rx="2" ry="2"/>
<text x="13.0" y="206.0">java/util/Comparator.la..</text>
</g>
<g>
<title>java/util/Comparator$$Lambda$80/1990546855.compare (78,947 samples, 15.41%)</title><rect x="10.0" y="179.0" width="181.8" height="15" fill="#69fa69" rx="2" ry="2"/>
<text x="13.0" y="190.0">java/util/Comparator$$L..</text>
</g>
<g>
<title>java/util/Comparator.lambda$thenComparing$36697e65$1 (78,947 samples, 15.41%)</title><rect x="10.0" y="163.0" width="181.8" height="15" fill="#6dfe6d" rx="2" ry="2"/>
<text x="13.0" y="174.0">java/util/Comparator.la..</text>
</g>
<g>
<title>java/util/Comparator$$Lambda$78/176690171.compare (78,947 samples, 15.41%)</title><rect x="10.0" y="147.0" width="181.8" height="15" fill="#53e453" rx="2" ry="2"/>
<text x="13.0" y="158.0">java/util/Comparator$$L..</text>
</g>
<g>
<title>java/util/Comparator.lambda$comparing$77a9974f$1 (78,947 samples, 15.41%)</title><rect x="10.0" y="131.0" width="181.8" height="15" fill="#55e655" rx="2" ry="2"/>
<text x="13.0" y="142.0">java/util/Comparator.la..</text>
</g>
<g>
<title>ru/mail/polis/dao/igorlo/TableRow$$Lambda$77/702195752.apply (78,947 samples, 15.41%)</title><rect x="10.0" y="115.0" width="181.8" height="15" fill="#66f766" rx="2" ry="2"/>
<text x="13.0" y="126.0">ru/mail/polis/dao/igorl..</text>
</g>
<g>
<title>ru/mail/polis/dao/igorlo/TableRow.getKey (78,947 samples, 15.41%)</title><rect x="10.0" y="99.0" width="181.8" height="15" fill="#68f968" rx="2" ry="2"/>
<text x="13.0" y="110.0">ru/mail/polis/dao/igorl..</text>
</g>
<g>
<title>java/nio/DirectByteBufferR.asReadOnlyBuffer (78,947 samples, 15.41%)</title><rect x="10.0" y="83.0" width="181.8" height="15" fill="#68f968" rx="2" ry="2"/>
<text x="13.0" y="94.0">java/nio/DirectByteBuff..</text>
</g>
<g>
<title>java/nio/DirectByteBufferR.duplicate (78,947 samples, 15.41%)</title><rect x="10.0" y="67.0" width="181.8" height="15" fill="#5aeb5a" rx="2" ry="2"/>
<text x="13.0" y="78.0">java/nio/DirectByteBuff..</text>
</g>
<g>
<title>java.nio.DirectByteBufferR (78,947 samples, 15.41%)</title><rect x="10.0" y="51.0" width="181.8" height="15" fill="#54c2c2" rx="2" ry="2"/>
<text x="13.0" y="62.0">java.nio.DirectByteBuff..</text>
</g>
<g>
<title>java/util/PriorityQueue.add (350,874 samples, 68.47%)</title><rect x="191.8" y="323.0" width="808.0" height="15" fill="#51e251" rx="2" ry="2"/>
<text x="194.8" y="334.0">java/util/PriorityQueue.add</text>
</g>
<g>
<title>java/util/PriorityQueue.offer (350,874 samples, 68.47%)</title><rect x="191.8" y="307.0" width="808.0" height="15" fill="#6cfd6c" rx="2" ry="2"/>
<text x="194.8" y="318.0">java/util/PriorityQueue.offer</text>
</g>
<g>
<title>java/util/PriorityQueue.siftUp (350,874 samples, 68.47%)</title><rect x="191.8" y="291.0" width="808.0" height="15" fill="#5ff05f" rx="2" ry="2"/>
<text x="194.8" y="302.0">java/util/PriorityQueue.siftUp</text>
</g>
<g>
<title>java/util/PriorityQueue.siftUpUsingComparator (350,874 samples, 68.47%)</title><rect x="191.8" y="275.0" width="808.0" height="15" fill="#64f564" rx="2" ry="2"/>
<text x="194.8" y="286.0">java/util/PriorityQueue.siftUpUsingComparator</text>
</g>
<g>
<title>com/google/common/collect/Iterators$MergingIterator$1.compare (350,874 samples, 68.47%)</title><rect x="191.8" y="259.0" width="808.0" height="15" fill="#58e958" rx="2" ry="2"/>
<text x="194.8" y="270.0">com/google/common/collect/Iterators$MergingIterator$1.compare</text>
</g>
<g>
<title>com/google/common/collect/Iterators$MergingIterator$1.compare (350,874 samples, 68.47%)</title><rect x="191.8" y="243.0" width="808.0" height="15" fill="#60f160" rx="2" ry="2"/>
<text x="194.8" y="254.0">com/google/common/collect/Iterators$MergingIterator$1.compare</text>
</g>
<g>
<title>com/google/common/collect/Iterators$PeekingImpl.peek (272,084 samples, 53.09%)</title><rect x="191.8" y="227.0" width="626.5" height="15" fill="#69fa69" rx="2" ry="2"/>
<text x="194.8" y="238.0">com/google/common/collect/Iterators$PeekingImpl.peek</text>
</g>
<g>
<title>ru/mail/polis/dao/igorlo/SSTable$SSTableIterator.next (272,084 samples, 53.09%)</title><rect x="191.8" y="211.0" width="626.5" height="15" fill="#52e352" rx="2" ry="2"/>
<text x="194.8" y="222.0">ru/mail/polis/dao/igorlo/SSTable$SSTableIterator.next</text>
</g>
<g>
<title>ru/mail/polis/dao/igorlo/SSTable$SSTableIterator.next (272,084 samples, 53.09%)</title><rect x="191.8" y="195.0" width="626.5" height="15" fill="#52e352" rx="2" ry="2"/>
<text x="194.8" y="206.0">ru/mail/polis/dao/igorlo/SSTable$SSTableIterator.next</text>
</g>
<g>
<title>ru/mail/polis/dao/igorlo/SSTable.transform (272,084 samples, 53.09%)</title><rect x="191.8" y="179.0" width="626.5" height="15" fill="#69fa69" rx="2" ry="2"/>
<text x="194.8" y="190.0">ru/mail/polis/dao/igorlo/SSTable.transform</text>
</g>
<g>
<title>ru/mail/polis/dao/igorlo/SSTable.keyAt (78,054 samples, 15.23%)</title><rect x="191.8" y="163.0" width="179.7" height="15" fill="#62f362" rx="2" ry="2"/>
<text x="194.8" y="174.0">ru/mail/polis/dao/igorl..</text>
</g>
<g>
<title>java/nio/DirectByteBufferR.asReadOnlyBuffer (39,012 samples, 7.61%)</title><rect x="191.8" y="147.0" width="89.8" height="15" fill="#68f968" rx="2" ry="2"/>
<text x="194.8" y="158.0">java/nio/D..</text>
</g>
<g>
<title>java/nio/DirectByteBufferR.duplicate (39,012 samples, 7.61%)</title><rect x="191.8" y="131.0" width="89.8" height="15" fill="#57e857" rx="2" ry="2"/>
<text x="194.8" y="142.0">java/nio/D..</text>
</g>
<g>
<title>java.nio.DirectByteBufferR (39,012 samples, 7.61%)</title><rect x="191.8" y="115.0" width="89.8" height="15" fill="#56c4c4" rx="2" ry="2"/>
<text x="194.8" y="126.0">java.nio.D..</text>
</g>
<g>
<title>java/nio/DirectByteBufferR.slice (39,042 samples, 7.62%)</title><rect x="281.6" y="147.0" width="89.9" height="15" fill="#62f362" rx="2" ry="2"/>
<text x="284.6" y="158.0">java/nio/D..</text>
</g>
<g>
<title>java.nio.DirectByteBufferR (39,042 samples, 7.62%)</title><rect x="281.6" y="131.0" width="89.9" height="15" fill="#5ac8c8" rx="2" ry="2"/>
<text x="284.6" y="142.0">java.nio.D..</text>
</g>
<g>
<title>ru/mail/polis/dao/igorlo/SSTable.rowAt (79,437 samples, 15.50%)</title><rect x="371.5" y="163.0" width="183.0" height="15" fill="#51e251" rx="2" ry="2"/>
<text x="374.5" y="174.0">ru/mail/polis/dao/igorlo..</text>
</g>
<g>
<title>java/nio/DirectByteBufferR.asReadOnlyBuffer (40,300 samples, 7.86%)</title><rect x="371.5" y="147.0" width="92.8" height="15" fill="#67f867" rx="2" ry="2"/>
<text x="374.5" y="158.0">java/nio/Di..</text>
</g>
<g>
<title>java/nio/DirectByteBufferR.duplicate (40,300 samples, 7.86%)</title><rect x="371.5" y="131.0" width="92.8" height="15" fill="#6dfe6d" rx="2" ry="2"/>
<text x="374.5" y="142.0">java/nio/Di..</text>
</g>
<g>
<title>java.nio.DirectByteBufferR (40,300 samples, 7.86%)</title><rect x="371.5" y="115.0" width="92.8" height="15" fill="#58c6c6" rx="2" ry="2"/>
<text x="374.5" y="126.0">java.nio.Di..</text>
</g>
<g>
<title>java/nio/DirectByteBufferR.slice (39,137 samples, 7.64%)</title><rect x="464.3" y="147.0" width="90.2" height="15" fill="#6dfe6d" rx="2" ry="2"/>
<text x="467.3" y="158.0">java/nio/D..</text>
</g>
<g>
<title>java.nio.DirectByteBufferR (39,137 samples, 7.64%)</title><rect x="464.3" y="131.0" width="90.2" height="15" fill="#6bd9d9" rx="2" ry="2"/>
<text x="467.3" y="142.0">java.nio.D..</text>
</g>
<g>
<title>ru/mail/polis/dao/igorlo/SSTable.timestampAt (38,897 samples, 7.59%)</title><rect x="554.5" y="163.0" width="89.5" height="15" fill="#53e453" rx="2" ry="2"/>
<text x="557.5" y="174.0">ru/mail/po..</text>
</g>
<g>
<title>java/nio/DirectByteBufferR.asReadOnlyBuffer (38,897 samples, 7.59%)</title><rect x="554.5" y="147.0" width="89.5" height="15" fill="#6dfe6d" rx="2" ry="2"/>
<text x="557.5" y="158.0">java/nio/D..</text>
</g>
<g>
<title>java/nio/DirectByteBufferR.duplicate (38,897 samples, 7.59%)</title><rect x="554.5" y="131.0" width="89.5" height="15" fill="#51e251" rx="2" ry="2"/>
<text x="557.5" y="142.0">java/nio/D..</text>
</g>
<g>
<title>java.nio.DirectByteBufferR (38,897 samples, 7.59%)</title><rect x="554.5" y="115.0" width="89.5" height="15" fill="#58c6c6" rx="2" ry="2"/>
<text x="557.5" y="126.0">java.nio.D..</text>
</g>
<g>
<title>ru/mail/polis/dao/igorlo/SSTable.valueAt (39,221 samples, 7.65%)</title><rect x="644.0" y="163.0" width="90.3" height="15" fill="#66f766" rx="2" ry="2"/>
<text x="647.0" y="174.0">ru/mail/po..</text>
</g>
<g>
<title>java/nio/DirectByteBufferR.asReadOnlyBuffer (19,672 samples, 3.84%)</title><rect x="644.0" y="147.0" width="45.3" height="15" fill="#69fa69" rx="2" ry="2"/>
<text x="647.0" y="158.0">java..</text>
</g>
<g>
<title>java/nio/DirectByteBufferR.duplicate (19,672 samples, 3.84%)</title><rect x="644.0" y="131.0" width="45.3" height="15" fill="#52e352" rx="2" ry="2"/>
<text x="647.0" y="142.0">java..</text>
</g>
<g>
<title>java.nio.DirectByteBufferR (19,672 samples, 3.84%)</title><rect x="644.0" y="115.0" width="45.3" height="15" fill="#52c0c0" rx="2" ry="2"/>
<text x="647.0" y="126.0">java..</text>
</g>
<g>
<title>java/nio/DirectByteBufferR.slice (19,549 samples, 3.81%)</title><rect x="689.3" y="147.0" width="45.0" height="15" fill="#6dfe6d" rx="2" ry="2"/>
<text x="692.3" y="158.0">java..</text>
</g>
<g>
<title>java.nio.DirectByteBufferR (19,549 samples, 3.81%)</title><rect x="689.3" y="131.0" width="45.0" height="15" fill="#54c2c2" rx="2" ry="2"/>
<text x="692.3" y="142.0">java..</text>
</g>
<g>
<title>ru/mail/polis/dao/igorlo/TableRow.of (14,863 samples, 2.90%)</title><rect x="734.3" y="163.0" width="34.3" height="15" fill="#51e251" rx="2" ry="2"/>
<text x="737.3" y="174.0">ru..</text>
</g>
<g>
<title>ru.mail.polis.dao.igorlo.TableRow (14,863 samples, 2.90%)</title><rect x="734.3" y="147.0" width="34.3" height="15" fill="#5fcdcd" rx="2" ry="2"/>
<text x="737.3" y="158.0">ru..</text>
</g>
<g>
<title>ru/mail/polis/dao/igorlo/Value.of (10,772 samples, 2.10%)</title><rect x="768.6" y="163.0" width="24.8" height="15" fill="#68f968" rx="2" ry="2"/>
<text x="771.6" y="174.0">r..</text>
</g>
<g>
<title>ru.mail.polis.dao.igorlo.Value (10,772 samples, 2.10%)</title><rect x="768.6" y="147.0" width="24.8" height="15" fill="#59c7c7" rx="2" ry="2"/>
<text x="771.6" y="158.0">r..</text>
</g>
<g>
<title>ru/mail/polis/dao/igorlo/Value.tombstone (10,840 samples, 2.12%)</title><rect x="793.4" y="163.0" width="24.9" height="15" fill="#51e251" rx="2" ry="2"/>
<text x="796.4" y="174.0">r..</text>
</g>
<g>
<title>ru.mail.polis.dao.igorlo.Value (10,840 samples, 2.12%)</title><rect x="793.4" y="147.0" width="24.9" height="15" fill="#64d2d2" rx="2" ry="2"/>
<text x="796.4" y="158.0">r..</text>
</g>
<g>
<title>ru/mail/polis/dao/igorlo/Table$$Lambda$67/1799357758.compare (78,790 samples, 15.38%)</title><rect x="818.3" y="227.0" width="181.5" height="15" fill="#5ced5c" rx="2" ry="2"/>
<text x="821.3" y="238.0">ru/mail/polis/dao/igorl..</text>
</g>
<g>
<title>ru/mail/polis/dao/igorlo/TableRow.compareTo (78,790 samples, 15.38%)</title><rect x="818.3" y="211.0" width="181.5" height="15" fill="#54e554" rx="2" ry="2"/>
<text x="821.3" y="222.0">ru/mail/polis/dao/igorl..</text>
</g>
<g>
<title>java/util/Comparator$$Lambda$80/1990546855.compare (78,790 samples, 15.38%)</title><rect x="818.3" y="195.0" width="181.5" height="15" fill="#5ff05f" rx="2" ry="2"/>
<text x="821.3" y="206.0">java/util/Comparator$$L..</text>
</g>
<g>
<title>java/util/Comparator.lambda$thenComparing$36697e65$1 (78,790 samples, 15.38%)</title><rect x="818.3" y="179.0" width="181.5" height="15" fill="#50e150" rx="2" ry="2"/>
<text x="821.3" y="190.0">java/util/Comparator.la..</text>
</g>
<g>
<title>java/util/Comparator$$Lambda$80/1990546855.compare (78,790 samples, 15.38%)</title><rect x="818.3" y="163.0" width="181.5" height="15" fill="#6dfe6d" rx="2" ry="2"/>
<text x="821.3" y="174.0">java/util/Comparator$$L..</text>
</g>
<g>
<title>java/util/Comparator.lambda$thenComparing$36697e65$1 (78,790 samples, 15.38%)</title><rect x="818.3" y="147.0" width="181.5" height="15" fill="#67f867" rx="2" ry="2"/>
<text x="821.3" y="158.0">java/util/Comparator.la..</text>
</g>
<g>
<title>java/util/Comparator$$Lambda$78/176690171.compare (78,790 samples, 15.38%)</title><rect x="818.3" y="131.0" width="181.5" height="15" fill="#57e857" rx="2" ry="2"/>
<text x="821.3" y="142.0">java/util/Comparator$$L..</text>
</g>
<g>
<title>java/util/Comparator.lambda$comparing$77a9974f$1 (78,790 samples, 15.38%)</title><rect x="818.3" y="115.0" width="181.5" height="15" fill="#61f261" rx="2" ry="2"/>
<text x="821.3" y="126.0">java/util/Comparator.la..</text>
</g>
<g>
<title>ru/mail/polis/dao/igorlo/TableRow$$Lambda$77/702195752.apply (78,790 samples, 15.38%)</title><rect x="818.3" y="99.0" width="181.5" height="15" fill="#54e554" rx="2" ry="2"/>
<text x="821.3" y="110.0">ru/mail/polis/dao/igorl..</text>
</g>
<g>
<title>ru/mail/polis/dao/igorlo/TableRow.getKey (78,790 samples, 15.38%)</title><rect x="818.3" y="83.0" width="181.5" height="15" fill="#58e958" rx="2" ry="2"/>
<text x="821.3" y="94.0">ru/mail/polis/dao/igorl..</text>
</g>
<g>
<title>java/nio/DirectByteBufferR.asReadOnlyBuffer (78,790 samples, 15.38%)</title><rect x="818.3" y="67.0" width="181.5" height="15" fill="#5aeb5a" rx="2" ry="2"/>
<text x="821.3" y="78.0">java/nio/DirectByteBuff..</text>
</g>
<g>
<title>java/nio/DirectByteBufferR.duplicate (78,790 samples, 15.38%)</title><rect x="818.3" y="51.0" width="181.5" height="15" fill="#53e453" rx="2" ry="2"/>
<text x="821.3" y="62.0">java/nio/DirectByteBuff..</text>
</g>
<g>
<title>java.nio.DirectByteBufferR (78,790 samples, 15.38%)</title><rect x="818.3" y="35.0" width="181.5" height="15" fill="#61cfcf" rx="2" ry="2"/>
<text x="821.3" y="46.0">java.nio.DirectByteBuff..</text>
</g>
<g>
<title>ru/mail/polis/dao/igorlo/Table$$Lambda$68/970701722.apply (79,073 samples, 15.43%)</title><rect x="999.8" y="339.0" width="182.0" height="15" fill="#5aeb5a" rx="2" ry="2"/>
<text x="1002.8" y="350.0">ru/mail/polis/dao/igorlo..</text>
</g>
<g>
<title>ru/mail/polis/dao/igorlo/TableRow.getKey (79,073 samples, 15.43%)</title><rect x="999.8" y="323.0" width="182.0" height="15" fill="#51e251" rx="2" ry="2"/>
<text x="1002.8" y="334.0">ru/mail/polis/dao/igorlo..</text>
</g>
<g>
<title>java/nio/DirectByteBufferR.asReadOnlyBuffer (79,073 samples, 15.43%)</title><rect x="999.8" y="307.0" width="182.0" height="15" fill="#64f564" rx="2" ry="2"/>
<text x="1002.8" y="318.0">java/nio/DirectByteBuffe..</text>
</g>
<g>
<title>java/nio/DirectByteBufferR.duplicate (79,073 samples, 15.43%)</title><rect x="999.8" y="291.0" width="182.0" height="15" fill="#5aeb5a" rx="2" ry="2"/>
<text x="1002.8" y="302.0">java/nio/DirectByteBuffe..</text>
</g>
<g>
<title>java.nio.DirectByteBufferR (79,073 samples, 15.43%)</title><rect x="999.8" y="275.0" width="182.0" height="15" fill="#52c0c0" rx="2" ry="2"/>
<text x="1002.8" y="286.0">java.nio.DirectByteBufferR</text>
</g>
<g>
<title>ru/mail/polis/dao/igorlo/PersistentDAO.iterator (2,401 samples, 0.47%)</title><rect x="1181.8" y="419.0" width="5.6" height="15" fill="#6dfe6d" rx="2" ry="2"/>
<text x="1184.8" y="430.0"></text>
</g>
<g>
<title>ru/mail/polis/dao/igorlo/PersistentDAO.rowsIterator (2,401 samples, 0.47%)</title><rect x="1181.8" y="403.0" width="5.6" height="15" fill="#52e352" rx="2" ry="2"/>
<text x="1184.8" y="414.0"></text>
</g>
<g>
<title>ru/mail/polis/dao/igorlo/Table.transformRows (2,323 samples, 0.45%)</title><rect x="1182.0" y="387.0" width="5.4" height="15" fill="#6cfd6c" rx="2" ry="2"/>
<text x="1185.0" y="398.0"></text>
</g>
<g>
<title>com/google/common/collect/Iterators.mergeSorted (2,318 samples, 0.45%)</title><rect x="1182.0" y="371.0" width="5.4" height="15" fill="#52e352" rx="2" ry="2"/>
<text x="1185.0" y="382.0"></text>
</g>
<g>
<title>com/google/common/collect/Iterators$MergingIterator.&lt;init&gt; (2,318 samples, 0.45%)</title><rect x="1182.0" y="355.0" width="5.4" height="15" fill="#55e655" rx="2" ry="2"/>
<text x="1185.0" y="366.0"></text>
</g>
<g>
<title>com/google/common/collect/AbstractIterator.hasNext (2,308 samples, 0.45%)</title><rect x="1182.0" y="339.0" width="5.3" height="15" fill="#6cfd6c" rx="2" ry="2"/>
<text x="1185.0" y="350.0"></text>
</g>
<g>
<title>com/google/common/collect/AbstractIterator.tryToComputeNext (2,308 samples, 0.45%)</title><rect x="1182.0" y="323.0" width="5.3" height="15" fill="#56e756" rx="2" ry="2"/>
<text x="1185.0" y="334.0"></text>
</g>
<g>
<title>com/google/common/collect/Iterators$5.computeNext (2,308 samples, 0.45%)</title><rect x="1182.0" y="307.0" width="5.3" height="15" fill="#56e756" rx="2" ry="2"/>
<text x="1185.0" y="318.0"></text>
</g>
<g>
<title>ru/mail/polis/dao/Iters$CollapseEqualsIterator.next (2,308 samples, 0.45%)</title><rect x="1182.0" y="291.0" width="5.3" height="15" fill="#5dee5d" rx="2" ry="2"/>
<text x="1185.0" y="302.0"></text>
</g>
<g>
<title>ru/mail/polis/dao/igorlo/Table$$Lambda$68/970701722.apply (2,308 samples, 0.45%)</title><rect x="1182.0" y="275.0" width="5.3" height="15" fill="#51e251" rx="2" ry="2"/>
<text x="1185.0" y="286.0"></text>
</g>
<g>
<title>ru/mail/polis/dao/igorlo/TableRow.getKey (2,308 samples, 0.45%)</title><rect x="1182.0" y="259.0" width="5.3" height="15" fill="#60f160" rx="2" ry="2"/>
<text x="1185.0" y="270.0"></text>
</g>
<g>
<title>java/nio/HeapByteBuffer.asReadOnlyBuffer (2,308 samples, 0.45%)</title><rect x="1182.0" y="243.0" width="5.3" height="15" fill="#5eef5e" rx="2" ry="2"/>
<text x="1185.0" y="254.0"></text>
</g>
<g>
<title>java.nio.HeapByteBufferR (2,308 samples, 0.45%)</title><rect x="1182.0" y="227.0" width="5.3" height="15" fill="#65d3d3" rx="2" ry="2"/>
<text x="1185.0" y="238.0"></text>
</g>
<g>
<title>one/nio/server/SelectorThread.run (1,136 samples, 0.22%)</title><rect x="1187.4" y="563.0" width="2.6" height="15" fill="#6cfd6c" rx="2" ry="2"/>
<text x="1190.4" y="574.0"></text>
</g>
<g>
<title>one/nio/net/Session.process (1,136 samples, 0.22%)</title><rect x="1187.4" y="547.0" width="2.6" height="15" fill="#63f463" rx="2" ry="2"/>
<text x="1190.4" y="558.0"></text>
</g>
<g>
<title>one/nio/http/HttpSession.processRead (1,136 samples, 0.22%)</title><rect x="1187.4" y="531.0" width="2.6" height="15" fill="#57e857" rx="2" ry="2"/>
<text x="1190.4" y="542.0"></text>
</g>
<g>
<title>one/nio/http/HttpSession.processHttpBuffer (1,133 samples, 0.22%)</title><rect x="1187.4" y="515.0" width="2.6" height="15" fill="#6dfe6d" rx="2" ry="2"/>
<text x="1190.4" y="526.0"></text>
</g>
<g>
<title>one/nio/http/HttpSession.parseRequest (1,085 samples, 0.21%)</title><rect x="1187.4" y="499.0" width="2.5" height="15" fill="#62f362" rx="2" ry="2"/>
<text x="1190.4" y="510.0"></text>
</g>
<g>
<title>one/nio/util/Utf8.read (1,067 samples, 0.21%)</title><rect x="1187.5" y="483.0" width="2.4" height="15" fill="#50e150" rx="2" ry="2"/>
<text x="1190.5" y="494.0"></text>
</g>
<g>
<title>one/nio/util/Utf8.read (1,067 samples, 0.21%)</title><rect x="1187.5" y="467.0" width="2.4" height="15" fill="#56e756" rx="2" ry="2"/>
<text x="1190.5" y="478.0"></text>
</g>
<g>
<title>char[] (1,062 samples, 0.21%)</title><rect x="1187.5" y="451.0" width="2.4" height="15" fill="#56c4c4" rx="2" ry="2"/>
<text x="1190.5" y="462.0"></text>
</g>
</g>
</svg>
