<?xml version="1.0" standalone="no"?>
<!DOCTYPE svg PUBLIC "-//W3C//DTD SVG 1.1//EN" "http://www.w3.org/Graphics/SVG/1.1/DTD/svg11.dtd">
<svg version="1.1" width="1200" height="374" onload="init(evt)" viewBox="0 0 1200 374" xmlns="http://www.w3.org/2000/svg" xmlns:xlink="http://www.w3.org/1999/xlink">
<style type="text/css">
	text { font-family:Verdana; font-size:12px; fill:rgb(0,0,0); }
	#search { opacity:0.1; cursor:pointer; }
	#search:hover, #search.show { opacity:1; }
	#subtitle { text-anchor:middle; font-color:rgb(160,160,160); }
	#title { text-anchor:middle; font-size:17px}
	#unzoom { cursor:pointer; }
	#frames > *:hover { stroke:black; stroke-width:0.5; cursor:pointer; }
	.hide { display:none; }
	.parent { opacity:0.5; }
</style>
<script type="text/ecmascript">
<![CDATA[
	"use strict";
	var details, searchbtn, unzoombtn, matchedtxt, svg, searching;
	function init(evt) {
		details = document.getElementById("details").firstChild;
		searchbtn = document.getElementById("search");
		unzoombtn = document.getElementById("unzoom");
		matchedtxt = document.getElementById("matched");
		svg = document.getElementsByTagName("svg")[0];
		searching = 0;
	}

	window.addEventListener("click", function(e) {
		var target = find_group(e.target);
		if (target) {
			if (target.nodeName == "a") {
				if (e.ctrlKey === false) return;
				e.preventDefault();
			}
			if (target.classList.contains("parent")) unzoom();
			zoom(target);
		}
		else if (e.target.id == "unzoom") unzoom();
		else if (e.target.id == "search") search_prompt();
	}, false)

	// mouse-over for info
	// show
	window.addEventListener("mouseover", function(e) {
		var target = find_group(e.target);
		if (target) details.nodeValue = "Function: " + g_to_text(target);
	}, false)

	// clear
	window.addEventListener("mouseout", function(e) {
		var target = find_group(e.target);
		if (target) details.nodeValue = ' ';
	}, false)

	// ctrl-F for search
	window.addEventListener("keydown",function (e) {
		if (e.keyCode === 114 || (e.ctrlKey && e.keyCode === 70)) {
			e.preventDefault();
			search_prompt();
		}
	}, false)

	// functions
	function find_child(node, selector) {
		var children = node.querySelectorAll(selector);
		if (children.length) return children[0];
		return;
	}
	function find_group(node) {
		var parent = node.parentElement;
		if (!parent) return;
		if (parent.id == "frames") return node;
		return find_group(parent);
	}
	function orig_save(e, attr, val) {
		if (e.attributes["_orig_" + attr] != undefined) return;
		if (e.attributes[attr] == undefined) return;
		if (val == undefined) val = e.attributes[attr].value;
		e.setAttribute("_orig_" + attr, val);
	}
	function orig_load(e, attr) {
		if (e.attributes["_orig_"+attr] == undefined) return;
		e.attributes[attr].value = e.attributes["_orig_" + attr].value;
		e.removeAttribute("_orig_"+attr);
	}
	function g_to_text(e) {
		var text = find_child(e, "title").firstChild.nodeValue;
		return (text)
	}
	function g_to_func(e) {
		var func = g_to_text(e);
		// if there's any manipulation we want to do to the function
		// name before it's searched, do it here before returning.
		return (func);
	}
	function update_text(e) {
		var r = find_child(e, "rect");
		var t = find_child(e, "text");
		var w = parseFloat(r.attributes.width.value) -3;
		var txt = find_child(e, "title").textContent.replace(/\([^(]*\)$/,"");
		t.attributes.x.value = parseFloat(r.attributes.x.value) + 3;

		// Smaller than this size won't fit anything
		if (w < 2 * 12 * 0.59) {
			t.textContent = "";
			return;
		}

		t.textContent = txt;
		// Fit in full text width
		if (/^ *$/.test(txt) || t.getSubStringLength(0, txt.length) < w)
			return;

		for (var x = txt.length - 2; x > 0; x--) {
			if (t.getSubStringLength(0, x + 2) <= w) {
				t.textContent = txt.substring(0, x) + "..";
				return;
			}
		}
		t.textContent = "";
	}

	// zoom
	function zoom_reset(e) {
		if (e.attributes != undefined) {
			orig_load(e, "x");
			orig_load(e, "width");
		}
		if (e.childNodes == undefined) return;
		for (var i = 0, c = e.childNodes; i < c.length; i++) {
			zoom_reset(c[i]);
		}
	}
	function zoom_child(e, x, ratio) {
		if (e.attributes != undefined) {
			if (e.attributes.x != undefined) {
				orig_save(e, "x");
				e.attributes.x.value = (parseFloat(e.attributes.x.value) - x - 10) * ratio + 10;
				if (e.tagName == "text")
					e.attributes.x.value = find_child(e.parentNode, "rect[x]").attributes.x.value + 3;
			}
			if (e.attributes.width != undefined) {
				orig_save(e, "width");
				e.attributes.width.value = parseFloat(e.attributes.width.value) * ratio;
			}
		}

		if (e.childNodes == undefined) return;
		for (var i = 0, c = e.childNodes; i < c.length; i++) {
			zoom_child(c[i], x - 10, ratio);
		}
	}
	function zoom_parent(e) {
		if (e.attributes) {
			if (e.attributes.x != undefined) {
				orig_save(e, "x");
				e.attributes.x.value = 10;
			}
			if (e.attributes.width != undefined) {
				orig_save(e, "width");
				e.attributes.width.value = parseInt(svg.width.baseVal.value) - (10 * 2);
			}
		}
		if (e.childNodes == undefined) return;
		for (var i = 0, c = e.childNodes; i < c.length; i++) {
			zoom_parent(c[i]);
		}
	}
	function zoom(node) {
		var attr = find_child(node, "rect").attributes;
		var width = parseFloat(attr.width.value);
		var xmin = parseFloat(attr.x.value);
		var xmax = parseFloat(xmin + width);
		var ymin = parseFloat(attr.y.value);
		var ratio = (svg.width.baseVal.value - 2 * 10) / width;

		// XXX: Workaround for JavaScript float issues (fix me)
		var fudge = 0.0001;

		unzoombtn.classList.remove("hide");

		var el = document.getElementById("frames").children;
		for (var i = 0; i < el.length; i++) {
			var e = el[i];
			var a = find_child(e, "rect").attributes;
			var ex = parseFloat(a.x.value);
			var ew = parseFloat(a.width.value);
			var upstack;
			// Is it an ancestor
			if (0 == 0) {
				upstack = parseFloat(a.y.value) > ymin;
			} else {
				upstack = parseFloat(a.y.value) < ymin;
			}
			if (upstack) {
				// Direct ancestor
				if (ex <= xmin && (ex+ew+fudge) >= xmax) {
					e.classList.add("parent");
					zoom_parent(e);
					update_text(e);
				}
				// not in current path
				else
					e.classList.add("hide");
			}
			// Children maybe
			else {
				// no common path
				if (ex < xmin || ex + fudge >= xmax) {
					e.classList.add("hide");
				}
				else {
					zoom_child(e, xmin, ratio);
					update_text(e);
				}
			}
		}
	}
	function unzoom() {
		unzoombtn.classList.add("hide");
		var el = document.getElementById("frames").children;
		for(var i = 0; i < el.length; i++) {
			el[i].classList.remove("parent");
			el[i].classList.remove("hide");
			zoom_reset(el[i]);
			update_text(el[i]);
		}
	}

	// search
	function reset_search() {
		var el = document.querySelectorAll("#frames rect");
		for (var i = 0; i < el.length; i++) {
			orig_load(el[i], "fill")
		}
	}
	function search_prompt() {
		if (!searching) {
			var term = prompt("Enter a search term (regexp " +
			    "allowed, eg: ^ext4_)", "");
			if (term != null) {
				search(term)
			}
		} else {
			reset_search();
			searching = 0;
			searchbtn.classList.remove("show");
			searchbtn.firstChild.nodeValue = "Search"
			matchedtxt.classList.add("hide");
			matchedtxt.firstChild.nodeValue = ""
		}
	}
	function search(term) {
		var re = new RegExp(term);
		var el = document.getElementById("frames").children;
		var matches = new Object();
		var maxwidth = 0;
		for (var i = 0; i < el.length; i++) {
			var e = el[i];
			var func = g_to_func(e);
			var rect = find_child(e, "rect");
			if (func == null || rect == null)
				continue;

			// Save max width. Only works as we have a root frame
			var w = parseFloat(rect.attributes.width.value);
			if (w > maxwidth)
				maxwidth = w;

			if (func.match(re)) {
				// highlight
				var x = parseFloat(rect.attributes.x.value);
				orig_save(rect, "fill");
				rect.attributes.fill.value = "rgb(230,0,230)";

				// remember matches
				if (matches[x] == undefined) {
					matches[x] = w;
				} else {
					if (w > matches[x]) {
						// overwrite with parent
						matches[x] = w;
					}
				}
				searching = 1;
			}
		}
		if (!searching)
			return;

		searchbtn.classList.add("show");
		searchbtn.firstChild.nodeValue = "Reset Search";

		// calculate percent matched, excluding vertical overlap
		var count = 0;
		var lastx = -1;
		var lastw = 0;
		var keys = Array();
		for (k in matches) {
			if (matches.hasOwnProperty(k))
				keys.push(k);
		}
		// sort the matched frames by their x location
		// ascending, then width descending
		keys.sort(function(a, b){
			return a - b;
		});
		// Step through frames saving only the biggest bottom-up frames
		// thanks to the sort order. This relies on the tree property
		// where children are always smaller than their parents.
		var fudge = 0.0001;	// JavaScript floating point
		for (var k in keys) {
			var x = parseFloat(keys[k]);
			var w = matches[keys[k]];
			if (x >= lastx + lastw - fudge) {
				count += w;
				lastx = x;
				lastw = w;
			}
		}
		// display matched percent
		matchedtxt.classList.remove("hide");
		var pct = 100 * count / maxwidth;
		if (pct != 100) pct = pct.toFixed(1)
		matchedtxt.firstChild.nodeValue = "Matched: " + pct + "%";
	}
]]>
</script>
<rect x="0" y="0" width="100%" height="100%" fill="rgb(240,240,220)"/>
<text id="title" x="600" y="24">Flame Graph</text>
<text id="details" x="10" y="357"> </text>
<text id="unzoom" x="10" y="24" class="hide">Reset Zoom</text>
<text id="search" x="1090" y="24">Search</text>
<text id="matched" x="1090" y="357"> </text>
<g id="frames">
<g>
<title>all (7,939 samples, 100.00%)</title><rect x="10.0" y="323.0" width="1180.0" height="15" fill="#f06e6e" rx="2" ry="2"/>
<text x="13.0" y="334.0">all</text>
</g>
<g>
<title>java/lang/Thread.run (1,990 samples, 25.07%)</title><rect x="10.1" y="307.0" width="295.8" height="15" fill="#6cfd6c" rx="2" ry="2"/>
<text x="13.1" y="318.0">java/lang/Thread.run</text>
</g>
<g>
<title>java/util/concurrent/ThreadPoolExecutor$Worker.run (1,990 samples, 25.07%)</title><rect x="10.1" y="291.0" width="295.8" height="15" fill="#5ced5c" rx="2" ry="2"/>
<text x="13.1" y="302.0">java/util/concurrent/ThreadPoolExecutor$..</text>
</g>
<g>
<title>java/util/concurrent/ThreadPoolExecutor.runWorker (1,990 samples, 25.07%)</title><rect x="10.1" y="275.0" width="295.8" height="15" fill="#5bec5b" rx="2" ry="2"/>
<text x="13.1" y="286.0">java/util/concurrent/ThreadPoolExecutor...</text>
</g>
<g>
<title>java/util/concurrent/ThreadPoolExecutor.getTask (153 samples, 1.93%)</title><rect x="10.1" y="259.0" width="22.8" height="15" fill="#6afb6a" rx="2" ry="2"/>
<text x="13.1" y="270.0">j..</text>
</g>
<g>
<title>java/util/concurrent/LinkedBlockingQueue.take (153 samples, 1.93%)</title><rect x="10.1" y="243.0" width="22.8" height="15" fill="#69fa69" rx="2" ry="2"/>
<text x="13.1" y="254.0">j..</text>
</g>
<g>
<title>java/util/concurrent/locks/AbstractQueuedSynchronizer$ConditionObject.await (153 samples, 1.93%)</title><rect x="10.1" y="227.0" width="22.8" height="15" fill="#65f665" rx="2" ry="2"/>
<text x="13.1" y="238.0">j..</text>
</g>
<g>
<title>java/util/concurrent/locks/AbstractQueuedSynchronizer$ConditionObject.addConditionWaiter (153 samples, 1.93%)</title><rect x="10.1" y="211.0" width="22.8" height="15" fill="#65f665" rx="2" ry="2"/>
<text x="13.1" y="222.0">j..</text>
</g>
<g>
<title>java.util.concurrent.locks.AbstractQueuedSynchronizer$Node (153 samples, 1.93%)</title><rect x="10.1" y="195.0" width="22.8" height="15" fill="#68d6d6" rx="2" ry="2"/>
<text x="13.1" y="206.0">j..</text>
</g>
<g>
<title>ru/mail/polis/dao/igorlo/PersistentDAO$FlushingTask.run (112 samples, 1.41%)</title><rect x="32.9" y="259.0" width="16.6" height="15" fill="#55e655" rx="2" ry="2"/>
<text x="35.9" y="270.0"></text>
</g>
<g>
<title>ru/mail/polis/dao/igorlo/PersistentDAO.flushAndLoad (112 samples, 1.41%)</title><rect x="32.9" y="243.0" width="16.6" height="15" fill="#61f261" rx="2" ry="2"/>
<text x="35.9" y="254.0"></text>
</g>
<g>
<title>ru/mail/polis/dao/igorlo/SSTable.flush (111 samples, 1.40%)</title><rect x="33.0" y="227.0" width="16.5" height="15" fill="#58e958" rx="2" ry="2"/>
<text x="36.0" y="238.0"></text>
</g>
<g>
<title>java/lang/Long.valueOf (2 samples, 0.03%)</title><rect x="33.0" y="211.0" width="0.3" height="15" fill="#50e150" rx="2" ry="2"/>
<text x="36.0" y="222.0"></text>
</g>
<g>
<title>java.lang.Long (2 samples, 0.03%)</title><rect x="33.0" y="195.0" width="0.3" height="15" fill="#58c6c6" rx="2" ry="2"/>
<text x="36.0" y="206.0"></text>
</g>
<g>
<title>java/nio/ByteBuffer.allocate (43 samples, 0.54%)</title><rect x="33.3" y="211.0" width="6.4" height="15" fill="#55e655" rx="2" ry="2"/>
<text x="36.3" y="222.0"></text>
</g>
<g>
<title>java.nio.HeapByteBuffer (21 samples, 0.26%)</title><rect x="33.3" y="195.0" width="3.2" height="15" fill="#61cfcf" rx="2" ry="2"/>
<text x="36.3" y="206.0"></text>
</g>
<g>
<title>java/nio/HeapByteBuffer.&lt;init&gt; (22 samples, 0.28%)</title><rect x="36.5" y="195.0" width="3.2" height="15" fill="#57e857" rx="2" ry="2"/>
<text x="39.5" y="206.0"></text>
</g>
<g>
<title>byte[] (21 samples, 0.26%)</title><rect x="36.5" y="179.0" width="3.1" height="15" fill="#55c3c3" rx="2" ry="2"/>
<text x="39.5" y="190.0"></text>
</g>
<g>
<title>java/util/ArrayList.add (4 samples, 0.05%)</title><rect x="39.7" y="211.0" width="0.6" height="15" fill="#6cfd6c" rx="2" ry="2"/>
<text x="42.7" y="222.0"></text>
</g>
<g>
<title>java/util/ArrayList.add (4 samples, 0.05%)</title><rect x="39.7" y="195.0" width="0.6" height="15" fill="#60f160" rx="2" ry="2"/>
<text x="42.7" y="206.0"></text>
</g>
<g>
<title>java/util/ArrayList.grow (4 samples, 0.05%)</title><rect x="39.7" y="179.0" width="0.6" height="15" fill="#51e251" rx="2" ry="2"/>
<text x="42.7" y="190.0"></text>
</g>
<g>
<title>java/util/ArrayList.grow (4 samples, 0.05%)</title><rect x="39.7" y="163.0" width="0.6" height="15" fill="#57e857" rx="2" ry="2"/>
<text x="42.7" y="174.0"></text>
</g>
<g>
<title>java/util/Arrays.copyOf (4 samples, 0.05%)</title><rect x="39.7" y="147.0" width="0.6" height="15" fill="#58e958" rx="2" ry="2"/>
<text x="42.7" y="158.0"></text>
</g>
<g>
<title>java.lang.Object[] (4 samples, 0.05%)</title><rect x="39.7" y="131.0" width="0.6" height="15" fill="#ec8800" rx="2" ry="2"/>
<text x="42.7" y="142.0"></text>
</g>
<g>
<title>ru/mail/polis/dao/igorlo/TableRow.getKey (22 samples, 0.28%)</title><rect x="40.3" y="211.0" width="3.3" height="15" fill="#50e150" rx="2" ry="2"/>
<text x="43.3" y="222.0"></text>
</g>
<g>
<title>java/nio/HeapByteBuffer.asReadOnlyBuffer (22 samples, 0.28%)</title><rect x="40.3" y="195.0" width="3.3" height="15" fill="#6cfd6c" rx="2" ry="2"/>
<text x="43.3" y="206.0"></text>
</g>
<g>
<title>java.nio.HeapByteBufferR (22 samples, 0.28%)</title><rect x="40.3" y="179.0" width="3.3" height="15" fill="#5ccaca" rx="2" ry="2"/>
<text x="43.3" y="190.0"></text>
</g>
<g>
<title>ru/mail/polis/dao/igorlo/Value.getData (40 samples, 0.50%)</title><rect x="43.6" y="211.0" width="5.9" height="15" fill="#54e554" rx="2" ry="2"/>
<text x="46.6" y="222.0"></text>
</g>
<g>
<title>java/nio/HeapByteBuffer.asReadOnlyBuffer (40 samples, 0.50%)</title><rect x="43.6" y="195.0" width="5.9" height="15" fill="#54e554" rx="2" ry="2"/>
<text x="46.6" y="206.0"></text>
</g>
<g>
<title>java.nio.HeapByteBufferR (40 samples, 0.50%)</title><rect x="43.6" y="179.0" width="5.9" height="15" fill="#66d4d4" rx="2" ry="2"/>
<text x="46.6" y="190.0"></text>
</g>
<g>
<title>ru/mail/polis/service/igorlo/AsyncService$$Lambda$64/1422043020.run (1,725 samples, 21.73%)</title><rect x="49.5" y="259.0" width="256.4" height="15" fill="#61f261" rx="2" ry="2"/>
<text x="52.5" y="270.0">ru/mail/polis/service/igorlo/Async..</text>
</g>
<g>
<title>ru/mail/polis/service/igorlo/AsyncService.lambda$executeAsync$4 (1,725 samples, 21.73%)</title><rect x="49.5" y="243.0" width="256.4" height="15" fill="#63f463" rx="2" ry="2"/>
<text x="52.5" y="254.0">ru/mail/polis/service/igorlo/Async..</text>
</g>
<g>
<title>one/nio/http/HttpSession.sendResponse (746 samples, 9.40%)</title><rect x="49.5" y="227.0" width="110.9" height="15" fill="#64f564" rx="2" ry="2"/>
<text x="52.5" y="238.0">one/nio/http/..</text>
</g>
<g>
<title>one/nio/http/HttpSession.writeResponse (746 samples, 9.40%)</title><rect x="49.5" y="211.0" width="110.9" height="15" fill="#6dfe6d" rx="2" ry="2"/>
<text x="52.5" y="222.0">one/nio/http/..</text>
</g>
<g>
<title>one/nio/http/Response.toBytes (510 samples, 6.42%)</title><rect x="49.5" y="195.0" width="75.8" height="15" fill="#51e251" rx="2" ry="2"/>
<text x="52.5" y="206.0">one/nio/..</text>
</g>
<g>
<title>one/nio/util/ByteArrayBuilder.&lt;init&gt; (510 samples, 6.42%)</title><rect x="49.5" y="179.0" width="75.8" height="15" fill="#60f160" rx="2" ry="2"/>
<text x="52.5" y="190.0">one/nio/..</text>
</g>
<g>
<title>byte[] (510 samples, 6.42%)</title><rect x="49.5" y="163.0" width="75.8" height="15" fill="#68d6d6" rx="2" ry="2"/>
<text x="52.5" y="174.0">byte[]</text>
</g>
<g>
<title>one/nio/net/Session.write (236 samples, 2.97%)</title><rect x="125.3" y="195.0" width="35.1" height="15" fill="#67f867" rx="2" ry="2"/>
<text x="128.3" y="206.0">one..</text>
</g>
<g>
<title>one.nio.net.Session$ArrayQueueItem (236 samples, 2.97%)</title><rect x="125.3" y="179.0" width="35.1" height="15" fill="#58c6c6" rx="2" ry="2"/>
<text x="128.3" y="190.0">one..</text>
</g>
<g>
<title>ru/mail/polis/service/igorlo/AsyncService$$Lambda$83/517024138.action (979 samples, 12.33%)</title><rect x="160.4" y="227.0" width="145.5" height="15" fill="#63f463" rx="2" ry="2"/>
<text x="163.4" y="238.0">ru/mail/polis/serv..</text>
</g>
<g>
<title>ru/mail/polis/service/igorlo/AsyncService.lambda$entity$3 (979 samples, 12.33%)</title><rect x="160.4" y="211.0" width="145.5" height="15" fill="#6cfd6c" rx="2" ry="2"/>
<text x="163.4" y="222.0">ru/mail/polis/serv..</text>
</g>
<g>
<title>ru/mail/polis/service/igorlo/AsyncService.delete (979 samples, 12.33%)</title><rect x="160.4" y="195.0" width="145.5" height="15" fill="#69fa69" rx="2" ry="2"/>
<text x="163.4" y="206.0">ru/mail/polis/serv..</text>
</g>
<g>
<title>one.nio.http.Response (96 samples, 1.21%)</title><rect x="160.4" y="179.0" width="14.3" height="15" fill="#6cdada" rx="2" ry="2"/>
<text x="163.4" y="190.0"></text>
</g>
<g>
<title>one/nio/http/Response.&lt;init&gt; (480 samples, 6.05%)</title><rect x="174.7" y="179.0" width="71.3" height="15" fill="#6dfe6d" rx="2" ry="2"/>
<text x="177.7" y="190.0">one/nio/..</text>
</g>
<g>
<title>byte[] (187 samples, 2.36%)</title><rect x="174.7" y="163.0" width="27.8" height="15" fill="#54c2c2" rx="2" ry="2"/>
<text x="177.7" y="174.0">b..</text>
</g>
<g>
<title>java.lang.String[] (162 samples, 2.04%)</title><rect x="202.5" y="163.0" width="24.1" height="15" fill="#53c1c1" rx="2" ry="2"/>
<text x="205.5" y="174.0">j..</text>
</g>
<g>
<title>java.lang.String (131 samples, 1.65%)</title><rect x="226.6" y="163.0" width="19.4" height="15" fill="#61cfcf" rx="2" ry="2"/>
<text x="229.6" y="174.0"></text>
</g>
<g>
<title>ru/mail/polis/dao/igorlo/PersistentDAO.remove (403 samples, 5.08%)</title><rect x="246.0" y="179.0" width="59.9" height="15" fill="#5bec5b" rx="2" ry="2"/>
<text x="249.0" y="190.0">ru/mai..</text>
</g>
<g>
<title>ru/mail/polis/dao/igorlo/MemoryTablePool.remove (403 samples, 5.08%)</title><rect x="246.0" y="163.0" width="59.9" height="15" fill="#58e958" rx="2" ry="2"/>
<text x="249.0" y="174.0">ru/mai..</text>
</g>
<g>
<title>java/util/concurrent/locks/ReentrantReadWriteLock$ReadLock.lock (9 samples, 0.11%)</title><rect x="246.0" y="147.0" width="1.4" height="15" fill="#60f160" rx="2" ry="2"/>
<text x="249.0" y="158.0"></text>
</g>
<g>
<title>java/util/concurrent/locks/AbstractQueuedSynchronizer.acquireShared (9 samples, 0.11%)</title><rect x="246.0" y="131.0" width="1.4" height="15" fill="#6cfd6c" rx="2" ry="2"/>
<text x="249.0" y="142.0"></text>
</g>
<g>
<title>java/util/concurrent/locks/ReentrantReadWriteLock$Sync.tryAcquireShared (9 samples, 0.11%)</title><rect x="246.0" y="115.0" width="1.4" height="15" fill="#5aeb5a" rx="2" ry="2"/>
<text x="249.0" y="126.0"></text>
</g>
<g>
<title>java/lang/ThreadLocal.get (8 samples, 0.10%)</title><rect x="246.0" y="99.0" width="1.2" height="15" fill="#67f867" rx="2" ry="2"/>
<text x="249.0" y="110.0"></text>
</g>
<g>
<title>java/lang/ThreadLocal.setInitialValue (8 samples, 0.10%)</title><rect x="246.0" y="83.0" width="1.2" height="15" fill="#57e857" rx="2" ry="2"/>
<text x="249.0" y="94.0"></text>
</g>
<g>
<title>java/lang/ThreadLocal$ThreadLocalMap.set (4 samples, 0.05%)</title><rect x="246.0" y="67.0" width="0.6" height="15" fill="#65f665" rx="2" ry="2"/>
<text x="249.0" y="78.0"></text>
</g>
<g>
<title>java.lang.ThreadLocal$ThreadLocalMap$Entry (4 samples, 0.05%)</title><rect x="246.0" y="51.0" width="0.6" height="15" fill="#68d6d6" rx="2" ry="2"/>
<text x="249.0" y="62.0"></text>
</g>
<g>
<title>java/util/concurrent/locks/ReentrantReadWriteLock$Sync$ThreadLocalHoldCounter.initialValue (4 samples, 0.05%)</title><rect x="246.6" y="67.0" width="0.6" height="15" fill="#55e655" rx="2" ry="2"/>
<text x="249.6" y="78.0"></text>
</g>
<g>
<title>java/util/concurrent/locks/ReentrantReadWriteLock$Sync$ThreadLocalHoldCounter.initialValue (4 samples, 0.05%)</title><rect x="246.6" y="51.0" width="0.6" height="15" fill="#54e554" rx="2" ry="2"/>
<text x="249.6" y="62.0"></text>
</g>
<g>
<title>java.util.concurrent.locks.ReentrantReadWriteLock$Sync$HoldCounter (4 samples, 0.05%)</title><rect x="246.6" y="35.0" width="0.6" height="15" fill="#6ddbdb" rx="2" ry="2"/>
<text x="249.6" y="46.0"></text>
</g>
<g>
<title>ru/mail/polis/dao/igorlo/MemoryTable.remove (394 samples, 4.96%)</title><rect x="247.4" y="147.0" width="58.5" height="15" fill="#5aeb5a" rx="2" ry="2"/>
<text x="250.4" y="158.0">ru/mai..</text>
</g>
<g>
<title>java/util/concurrent/ConcurrentSkipListMap.put (45 samples, 0.57%)</title><rect x="247.4" y="131.0" width="6.7" height="15" fill="#6afb6a" rx="2" ry="2"/>
<text x="250.4" y="142.0"></text>
</g>
<g>
<title>java/util/concurrent/ConcurrentSkipListMap.doPut (45 samples, 0.57%)</title><rect x="247.4" y="115.0" width="6.7" height="15" fill="#61f261" rx="2" ry="2"/>
<text x="250.4" y="126.0"></text>
</g>
<g>
<title>java.util.concurrent.ConcurrentSkipListMap$Index (15 samples, 0.19%)</title><rect x="247.4" y="99.0" width="2.2" height="15" fill="#6ddbdb" rx="2" ry="2"/>
<text x="250.4" y="110.0"></text>
</g>
<g>
<title>java.util.concurrent.ConcurrentSkipListMap$Node (30 samples, 0.38%)</title><rect x="249.6" y="99.0" width="4.5" height="15" fill="#61cfcf" rx="2" ry="2"/>
<text x="252.6" y="110.0"></text>
</g>
<g>
<title>ru/mail/polis/dao/igorlo/TableRow.of (174 samples, 2.19%)</title><rect x="254.1" y="131.0" width="25.8" height="15" fill="#61f261" rx="2" ry="2"/>
<text x="257.1" y="142.0">r..</text>
</g>
<g>
<title>ru.mail.polis.dao.igorlo.TableRow (174 samples, 2.19%)</title><rect x="254.1" y="115.0" width="25.8" height="15" fill="#51bfbf" rx="2" ry="2"/>
<text x="257.1" y="126.0">r..</text>
</g>
<g>
<title>ru/mail/polis/dao/igorlo/Value.getData (47 samples, 0.59%)</title><rect x="279.9" y="131.0" width="7.0" height="15" fill="#54e554" rx="2" ry="2"/>
<text x="282.9" y="142.0"></text>
</g>
<g>
<title>java/nio/HeapByteBuffer.asReadOnlyBuffer (47 samples, 0.59%)</title><rect x="279.9" y="115.0" width="7.0" height="15" fill="#5ced5c" rx="2" ry="2"/>
<text x="282.9" y="126.0"></text>
</g>
<g>
<title>java.nio.HeapByteBufferR (47 samples, 0.59%)</title><rect x="279.9" y="99.0" width="7.0" height="15" fill="#68d6d6" rx="2" ry="2"/>
<text x="282.9" y="110.0"></text>
</g>
<g>
<title>ru/mail/polis/dao/igorlo/Value.tombstone (128 samples, 1.61%)</title><rect x="286.9" y="131.0" width="19.0" height="15" fill="#5ced5c" rx="2" ry="2"/>
<text x="289.9" y="142.0"></text>
</g>
<g>
<title>ru.mail.polis.dao.igorlo.Value (128 samples, 1.61%)</title><rect x="286.9" y="115.0" width="19.0" height="15" fill="#51bfbf" rx="2" ry="2"/>
<text x="289.9" y="126.0"></text>
</g>
<g>
<title>one/nio/server/AcceptorThread.run (2 samples, 0.03%)</title><rect x="305.9" y="307.0" width="0.3" height="15" fill="#67f867" rx="2" ry="2"/>
<text x="308.9" y="318.0"></text>
</g>
<g>
<title>ru/mail/polis/service/igorlo/AsyncService.createSession (2 samples, 0.03%)</title><rect x="305.9" y="291.0" width="0.3" height="15" fill="#58e958" rx="2" ry="2"/>
<text x="308.9" y="302.0"></text>
</g>
<g>
<title>ru/mail/polis/service/igorlo/AsyncService.createSession (2 samples, 0.03%)</title><rect x="305.9" y="275.0" width="0.3" height="15" fill="#50e150" rx="2" ry="2"/>
<text x="308.9" y="286.0"></text>
</g>
<g>
<title>one/nio/server/SelectorThread.run (5,946 samples, 74.90%)</title><rect x="306.2" y="307.0" width="883.8" height="15" fill="#67f867" rx="2" ry="2"/>
<text x="309.2" y="318.0">one/nio/server/SelectorThread.run</text>
</g>
<g>
<title>one/nio/net/NativeSelector.select (188 samples, 2.37%)</title><rect x="306.2" y="291.0" width="28.0" height="15" fill="#5ced5c" rx="2" ry="2"/>
<text x="309.2" y="302.0">o..</text>
</g>
<g>
<title>one.nio.net.NativeSelector$2 (188 samples, 2.37%)</title><rect x="306.2" y="275.0" width="28.0" height="15" fill="#53c1c1" rx="2" ry="2"/>
<text x="309.2" y="286.0">o..</text>
</g>
<g>
<title>one/nio/net/Session.process (5,758 samples, 72.53%)</title><rect x="334.2" y="291.0" width="855.8" height="15" fill="#5bec5b" rx="2" ry="2"/>
<text x="337.2" y="302.0">one/nio/net/Session.process</text>
</g>
<g>
<title>one/nio/http/HttpSession.processRead (5,758 samples, 72.53%)</title><rect x="334.2" y="275.0" width="855.8" height="15" fill="#68f968" rx="2" ry="2"/>
<text x="337.2" y="286.0">one/nio/http/HttpSession.processRead</text>
</g>
<g>
<title>one/nio/http/HttpSession.processHttpBuffer (5,758 samples, 72.53%)</title><rect x="334.2" y="259.0" width="855.8" height="15" fill="#5ced5c" rx="2" ry="2"/>
<text x="337.2" y="270.0">one/nio/http/HttpSession.processHttpBuffer</text>
</g>
<g>
<title>one/nio/http/HttpSession.handleParsedRequest (2,069 samples, 26.06%)</title><rect x="334.2" y="243.0" width="307.5" height="15" fill="#6bfc6b" rx="2" ry="2"/>
<text x="337.2" y="254.0">one/nio/http/HttpSession.handleParsedRequ..</text>
</g>
<g>
<title>one/nio/http/HttpServer.handleRequest (2,069 samples, 26.06%)</title><rect x="334.2" y="227.0" width="307.5" height="15" fill="#67f867" rx="2" ry="2"/>
<text x="337.2" y="238.0">one/nio/http/HttpServer.handleRequest</text>
</g>
<g>
<title>RequestHandler0_entity.handleRequest (1,648 samples, 20.76%)</title><rect x="334.2" y="211.0" width="244.9" height="15" fill="#66f766" rx="2" ry="2"/>
<text x="337.2" y="222.0">RequestHandler0_entity.handleReq..</text>
</g>
<g>
<title>one/nio/http/Request.getParameter (346 samples, 4.36%)</title><rect x="334.2" y="195.0" width="51.4" height="15" fill="#64f564" rx="2" ry="2"/>
<text x="337.2" y="206.0">one/n..</text>
</g>
<g>
<title>java/lang/String.substring (346 samples, 4.36%)</title><rect x="334.2" y="179.0" width="51.4" height="15" fill="#50e150" rx="2" ry="2"/>
<text x="337.2" y="190.0">java/..</text>
</g>
<g>
<title>java/lang/StringLatin1.newString (346 samples, 4.36%)</title><rect x="334.2" y="163.0" width="51.4" height="15" fill="#5eef5e" rx="2" ry="2"/>
<text x="337.2" y="174.0">java/..</text>
</g>
<g>
<title>java.lang.String (187 samples, 2.36%)</title><rect x="334.2" y="147.0" width="27.8" height="15" fill="#5fcdcd" rx="2" ry="2"/>
<text x="337.2" y="158.0">j..</text>
</g>
<g>
<title>java/util/Arrays.copyOfRange (159 samples, 2.00%)</title><rect x="362.0" y="147.0" width="23.6" height="15" fill="#55e655" rx="2" ry="2"/>
<text x="365.0" y="158.0">j..</text>
</g>
<g>
<title>byte[] (159 samples, 2.00%)</title><rect x="362.0" y="131.0" width="23.6" height="15" fill="#62d0d0" rx="2" ry="2"/>
<text x="365.0" y="142.0">b..</text>
</g>
<g>
<title>ru/mail/polis/service/igorlo/AsyncService.entity (1,302 samples, 16.40%)</title><rect x="385.6" y="195.0" width="193.5" height="15" fill="#5eef5e" rx="2" ry="2"/>
<text x="388.6" y="206.0">ru/mail/polis/service/igo..</text>
</g>
<g>
<title>java/lang/String.getBytes (219 samples, 2.76%)</title><rect x="385.6" y="179.0" width="32.5" height="15" fill="#5ff05f" rx="2" ry="2"/>
<text x="388.6" y="190.0">ja..</text>
</g>
<g>
<title>java/lang/StringCoding.encode (219 samples, 2.76%)</title><rect x="385.6" y="163.0" width="32.5" height="15" fill="#5ff05f" rx="2" ry="2"/>
<text x="388.6" y="174.0">ja..</text>
</g>
<g>
<title>java/lang/StringCoding.encodeUTF8 (219 samples, 2.76%)</title><rect x="385.6" y="147.0" width="32.5" height="15" fill="#51e251" rx="2" ry="2"/>
<text x="388.6" y="158.0">ja..</text>
</g>
<g>
<title>java/util/Arrays.copyOf (219 samples, 2.76%)</title><rect x="385.6" y="131.0" width="32.5" height="15" fill="#5ff05f" rx="2" ry="2"/>
<text x="388.6" y="142.0">ja..</text>
</g>
<g>
<title>byte[] (219 samples, 2.76%)</title><rect x="385.6" y="115.0" width="32.5" height="15" fill="#52c0c0" rx="2" ry="2"/>
<text x="388.6" y="126.0">by..</text>
</g>
<g>
<title>java/lang/invoke/Invokers$Holder.linkToTargetMethod (203 samples, 2.56%)</title><rect x="418.1" y="179.0" width="30.2" height="15" fill="#62f362" rx="2" ry="2"/>
<text x="421.1" y="190.0">ja..</text>
</g>
<g>
<title>java/lang/invoke/DirectMethodHandle$Holder.invokeStatic (203 samples, 2.56%)</title><rect x="418.1" y="163.0" width="30.2" height="15" fill="#61f261" rx="2" ry="2"/>
<text x="421.1" y="174.0">ja..</text>
</g>
<g>
<title>ru/mail/polis/service/igorlo/AsyncService$$Lambda$83/517024138.get$Lambda (203 samples, 2.56%)</title><rect x="418.1" y="147.0" width="30.2" height="15" fill="#56e756" rx="2" ry="2"/>
<text x="421.1" y="158.0">ru..</text>
</g>
<g>
<title>ru.mail.polis.service.igorlo.AsyncService$$Lambda$83 (203 samples, 2.56%)</title><rect x="418.1" y="131.0" width="30.2" height="15" fill="#50bebe" rx="2" ry="2"/>
<text x="421.1" y="142.0">ru..</text>
</g>
<g>
<title>java/nio/ByteBuffer.wrap (387 samples, 4.87%)</title><rect x="448.3" y="179.0" width="57.5" height="15" fill="#5bec5b" rx="2" ry="2"/>
<text x="451.3" y="190.0">java/n..</text>
</g>
<g>
<title>java/nio/ByteBuffer.wrap (387 samples, 4.87%)</title><rect x="448.3" y="163.0" width="57.5" height="15" fill="#63f463" rx="2" ry="2"/>
<text x="451.3" y="174.0">java/n..</text>
</g>
<g>
<title>java.nio.HeapByteBuffer (387 samples, 4.87%)</title><rect x="448.3" y="147.0" width="57.5" height="15" fill="#52c0c0" rx="2" ry="2"/>
<text x="451.3" y="158.0">java.n..</text>
</g>
<g>
<title>ru/mail/polis/service/igorlo/AsyncService.executeAsync (386 samples, 4.86%)</title><rect x="505.8" y="179.0" width="57.4" height="15" fill="#55e655" rx="2" ry="2"/>
<text x="508.8" y="190.0">ru/mai..</text>
</g>
<g>
<title>java/lang/invoke/Invokers$Holder.linkToTargetMethod (195 samples, 2.46%)</title><rect x="505.8" y="163.0" width="29.0" height="15" fill="#6cfd6c" rx="2" ry="2"/>
<text x="508.8" y="174.0">ja..</text>
</g>
<g>
<title>java/lang/invoke/DirectMethodHandle$Holder.invokeStatic (195 samples, 2.46%)</title><rect x="505.8" y="147.0" width="29.0" height="15" fill="#52e352" rx="2" ry="2"/>
<text x="508.8" y="158.0">ja..</text>
</g>
<g>
<title>ru/mail/polis/service/igorlo/AsyncService$$Lambda$64/1422043020.get$Lambda (195 samples, 2.46%)</title><rect x="505.8" y="131.0" width="29.0" height="15" fill="#6dfe6d" rx="2" ry="2"/>
<text x="508.8" y="142.0">ru..</text>
</g>
<g>
<title>ru.mail.polis.service.igorlo.AsyncService$$Lambda$64 (195 samples, 2.46%)</title><rect x="505.8" y="115.0" width="29.0" height="15" fill="#5bc9c9" rx="2" ry="2"/>
<text x="508.8" y="126.0">ru..</text>
</g>
<g>
<title>java/util/concurrent/ThreadPoolExecutor.execute (191 samples, 2.41%)</title><rect x="534.8" y="163.0" width="28.4" height="15" fill="#56e756" rx="2" ry="2"/>
<text x="537.8" y="174.0">ja..</text>
</g>
<g>
<title>java/util/concurrent/LinkedBlockingQueue.offer (191 samples, 2.41%)</title><rect x="534.8" y="147.0" width="28.4" height="15" fill="#5aeb5a" rx="2" ry="2"/>
<text x="537.8" y="158.0">ja..</text>
</g>
<g>
<title>java.util.concurrent.LinkedBlockingQueue$Node (188 samples, 2.37%)</title><rect x="534.8" y="131.0" width="28.0" height="15" fill="#55c3c3" rx="2" ry="2"/>
<text x="537.8" y="142.0">j..</text>
</g>
<g>
<title>java/util/concurrent/locks/ReentrantLock.lock (3 samples, 0.04%)</title><rect x="562.8" y="131.0" width="0.4" height="15" fill="#63f463" rx="2" ry="2"/>
<text x="565.8" y="142.0"></text>
</g>
<g>
<title>java/util/concurrent/locks/AbstractQueuedSynchronizer.acquire (3 samples, 0.04%)</title><rect x="562.8" y="115.0" width="0.4" height="15" fill="#57e857" rx="2" ry="2"/>
<text x="565.8" y="126.0"></text>
</g>
<g>
<title>java/util/concurrent/locks/AbstractQueuedSynchronizer.addWaiter (3 samples, 0.04%)</title><rect x="562.8" y="99.0" width="0.4" height="15" fill="#6dfe6d" rx="2" ry="2"/>
<text x="565.8" y="110.0"></text>
</g>
<g>
<title>java.util.concurrent.locks.AbstractQueuedSynchronizer$Node (3 samples, 0.04%)</title><rect x="562.8" y="83.0" width="0.4" height="15" fill="#5bc9c9" rx="2" ry="2"/>
<text x="565.8" y="94.0"></text>
</g>
<g>
<title>ru/mail/polis/service/igorlo/HashingTopology.primaryFor (107 samples, 1.35%)</title><rect x="563.2" y="179.0" width="15.9" height="15" fill="#6cfd6c" rx="2" ry="2"/>
<text x="566.2" y="190.0"></text>
</g>
<g>
<title>java/lang/Integer.valueOf (107 samples, 1.35%)</title><rect x="563.2" y="163.0" width="15.9" height="15" fill="#6dfe6d" rx="2" ry="2"/>
<text x="566.2" y="174.0"></text>
</g>
<g>
<title>java.lang.Integer (107 samples, 1.35%)</title><rect x="563.2" y="147.0" width="15.9" height="15" fill="#6ad8d8" rx="2" ry="2"/>
<text x="566.2" y="158.0"></text>
</g>
<g>
<title>one/nio/http/Request.getPath (421 samples, 5.30%)</title><rect x="579.1" y="211.0" width="62.6" height="15" fill="#5eef5e" rx="2" ry="2"/>
<text x="582.1" y="222.0">one/ni..</text>
</g>
<g>
<title>java/lang/String.substring (421 samples, 5.30%)</title><rect x="579.1" y="195.0" width="62.6" height="15" fill="#54e554" rx="2" ry="2"/>
<text x="582.1" y="206.0">java/l..</text>
</g>
<g>
<title>java/lang/StringLatin1.newString (421 samples, 5.30%)</title><rect x="579.1" y="179.0" width="62.6" height="15" fill="#5ff05f" rx="2" ry="2"/>
<text x="582.1" y="190.0">java/l..</text>
</g>
<g>
<title>java.lang.String (190 samples, 2.39%)</title><rect x="579.1" y="163.0" width="28.3" height="15" fill="#6cdada" rx="2" ry="2"/>
<text x="582.1" y="174.0">ja..</text>
</g>
<g>
<title>java/util/Arrays.copyOfRange (231 samples, 2.91%)</title><rect x="607.4" y="163.0" width="34.3" height="15" fill="#64f564" rx="2" ry="2"/>
<text x="610.4" y="174.0">ja..</text>
</g>
<g>
<title>byte[] (231 samples, 2.91%)</title><rect x="607.4" y="147.0" width="34.3" height="15" fill="#50bebe" rx="2" ry="2"/>
<text x="610.4" y="158.0">by..</text>
</g>
<g>
<title>one/nio/http/HttpSession.parseRequest (2,683 samples, 33.80%)</title><rect x="641.7" y="243.0" width="398.8" height="15" fill="#50e150" rx="2" ry="2"/>
<text x="644.7" y="254.0">one/nio/http/HttpSession.parseRequest</text>
</g>
<g>
<title>one.nio.http.Request (278 samples, 3.50%)</title><rect x="641.7" y="227.0" width="41.3" height="15" fill="#56c4c4" rx="2" ry="2"/>
<text x="644.7" y="238.0">one..</text>
</g>
<g>
<title>one/nio/http/Request.&lt;init&gt; (664 samples, 8.36%)</title><rect x="683.0" y="227.0" width="98.7" height="15" fill="#53e453" rx="2" ry="2"/>
<text x="686.0" y="238.0">one/nio/http..</text>
</g>
<g>
<title>java.lang.String[] (664 samples, 8.36%)</title><rect x="683.0" y="211.0" width="98.7" height="15" fill="#63d1d1" rx="2" ry="2"/>
<text x="686.0" y="222.0">java.lang.St..</text>
</g>
<g>
<title>one/nio/util/Utf8.read (1,741 samples, 21.93%)</title><rect x="781.7" y="227.0" width="258.8" height="15" fill="#67f867" rx="2" ry="2"/>
<text x="784.7" y="238.0">one/nio/util/Utf8.read</text>
</g>
<g>
<title>one/nio/util/Utf8.read (1,741 samples, 21.93%)</title><rect x="781.7" y="211.0" width="258.8" height="15" fill="#5aeb5a" rx="2" ry="2"/>
<text x="784.7" y="222.0">one/nio/util/Utf8.read</text>
</g>
<g>
<title>char[] (1,113 samples, 14.02%)</title><rect x="781.7" y="195.0" width="165.4" height="15" fill="#64d2d2" rx="2" ry="2"/>
<text x="784.7" y="206.0">char[]</text>
</g>
<g>
<title>java.lang.String (200 samples, 2.52%)</title><rect x="947.1" y="195.0" width="29.8" height="15" fill="#55c3c3" rx="2" ry="2"/>
<text x="950.1" y="206.0">ja..</text>
</g>
<g>
<title>java/lang/String.&lt;init&gt; (428 samples, 5.39%)</title><rect x="976.9" y="195.0" width="63.6" height="15" fill="#6dfe6d" rx="2" ry="2"/>
<text x="979.9" y="206.0">java/la..</text>
</g>
<g>
<title>java/lang/String.&lt;init&gt; (428 samples, 5.39%)</title><rect x="976.9" y="179.0" width="63.6" height="15" fill="#67f867" rx="2" ry="2"/>
<text x="979.9" y="190.0">java/la..</text>
</g>
<g>
<title>java/lang/StringUTF16.compress (428 samples, 5.39%)</title><rect x="976.9" y="163.0" width="63.6" height="15" fill="#5bec5b" rx="2" ry="2"/>
<text x="979.9" y="174.0">java/la..</text>
</g>
<g>
<title>byte[] (428 samples, 5.39%)</title><rect x="976.9" y="147.0" width="63.6" height="15" fill="#6cdada" rx="2" ry="2"/>
<text x="979.9" y="158.0">byte[]</text>
</g>
<g>
<title>one/nio/util/Utf8.read (1,006 samples, 12.67%)</title><rect x="1040.5" y="243.0" width="149.5" height="15" fill="#6afb6a" rx="2" ry="2"/>
<text x="1043.5" y="254.0">one/nio/util/Utf8.r..</text>
</g>
<g>
<title>one/nio/util/Utf8.read (1,006 samples, 12.67%)</title><rect x="1040.5" y="227.0" width="149.5" height="15" fill="#5aeb5a" rx="2" ry="2"/>
<text x="1043.5" y="238.0">one/nio/util/Utf8.r..</text>
</g>
<g>
<title>char[] (499 samples, 6.29%)</title><rect x="1040.5" y="211.0" width="74.1" height="15" fill="#59c7c7" rx="2" ry="2"/>
<text x="1043.5" y="222.0">char[]</text>
</g>
<g>
<title>java.lang.String (201 samples, 2.53%)</title><rect x="1114.6" y="211.0" width="29.9" height="15" fill="#53c1c1" rx="2" ry="2"/>
<text x="1117.6" y="222.0">ja..</text>
</g>
<g>
<title>java/lang/String.&lt;init&gt; (306 samples, 3.85%)</title><rect x="1144.5" y="211.0" width="45.5" height="15" fill="#64f564" rx="2" ry="2"/>
<text x="1147.5" y="222.0">java..</text>
</g>
<g>
<title>java/lang/String.&lt;init&gt; (306 samples, 3.85%)</title><rect x="1144.5" y="195.0" width="45.5" height="15" fill="#5ff05f" rx="2" ry="2"/>
<text x="1147.5" y="206.0">java..</text>
</g>
<g>
<title>java/lang/StringUTF16.compress (306 samples, 3.85%)</title><rect x="1144.5" y="179.0" width="45.5" height="15" fill="#66f766" rx="2" ry="2"/>
<text x="1147.5" y="190.0">java..</text>
</g>
<g>
<title>byte[] (306 samples, 3.85%)</title><rect x="1144.5" y="163.0" width="45.5" height="15" fill="#6cdada" rx="2" ry="2"/>
<text x="1147.5" y="174.0">byte[]</text>
</g>
</g>
</svg>
